<?xml version="1.0" encoding="UTF-8" standalone="no"?>
<!-- Created with Inkscape (http://www.inkscape.org/) -->

<svg
   width="150mm"
   height="150mm"
   viewBox="0 0 150 150"
   version="1.1"
   id="svg1"
   xml:space="preserve"
   inkscape:version="1.4.2 (f4327f4, 2025-05-13)"
   sodipodi:docname="yolose.svg"
   xmlns:inkscape="http://www.inkscape.org/namespaces/inkscape"
   xmlns:sodipodi="http://sodipodi.sourceforge.net/DTD/sodipodi-0.dtd"
   xmlns="http://www.w3.org/2000/svg"
   xmlns:svg="http://www.w3.org/2000/svg"><sodipodi:namedview
     id="namedview1"
     pagecolor="#ffffff"
     bordercolor="#000000"
     borderopacity="0.25"
     inkscape:showpageshadow="2"
     inkscape:pageopacity="0.0"
     inkscape:pagecheckerboard="0"
     inkscape:deskcolor="#d1d1d1"
     inkscape:document-units="mm"
     inkscape:zoom="0.97386896"
     inkscape:cx="211.01401"
     inkscape:cy="306.50941"
     inkscape:window-width="1920"
     inkscape:window-height="991"
     inkscape:window-x="-9"
     inkscape:window-y="-9"
     inkscape:window-maximized="1"
     inkscape:current-layer="g13" /><defs
     id="defs1"><inkscape:path-effect
       effect="fillet_chamfer"
       id="path-effect32"
       is_visible="true"
       lpeversion="1"
       nodesatellites_param="F,0,0,1,0,0,0,1 @ F,0,0,1,0,0,0,1 @ F,0,0,1,0,0,0,1 @ F,0,0,1,0,0,0,1 @ F,0,0,1,0,0,0,1 @ F,0,0,1,0,0,0,1 @ F,0,0,1,0,0,0,1 @ F,0,0,1,0,0,0,1 @ F,0,0,1,0,0,0,1 @ F,0,0,1,0,0,0,1 @ F,0,0,1,0,0,0,1 @ F,0,0,1,0,0,0,1 @ F,0,0,1,0,0,0,1 @ F,0,0,1,0,0,0,1 @ F,0,0,1,0,0,0,1 @ F,0,0,1,0,0,0,1 @ F,0,0,1,0,0,0,1 | F,0,0,1,0,0,0,1 @ F,0,0,1,0,0,0,1 @ F,0,0,1,0,0,0,1 @ F,0,0,1,0,0,0,1 @ F,0,0,1,0,0,0,1 @ F,0,0,1,0,0,0,1 @ F,0,0,1,0,0,0,1 @ F,0,0,1,0,0,0,1 @ F,0,0,1,0,0,0,1 @ F,0,0,1,0,0,0,1 @ F,0,0,1,0,0,0,1 @ F,0,0,1,0,0,0,1 @ F,0,0,1,0,0,0,1 @ F,0,0,1,0,0,0,1 @ F,0,0,1,0,0,0,1 @ F,0,0,1,0,0,0,1 @ F,0,0,1,0,0,0,1 @ F,0,0,1,0,0,0,1 @ F,0,0,1,0,0,0,1 @ F,0,0,1,0,0,0,1 @ F,0,0,1,0,0,0,1 @ F,0,0,1,0,0,0,1 @ F,0,0,1,0,0,0,1 @ F,0,0,1,0,0,0,1 @ F,0,0,1,0,0,0,1"
       radius="0"
       unit="px"
       method="auto"
       mode="F"
       chamfer_steps="1"
       flexible="false"
       use_knot_distance="true"
       apply_no_radius="true"
       apply_with_radius="true"
       only_selected="false"
       hide_knots="false" /><inkscape:path-effect
       effect="fillet_chamfer"
       id="path-effect31"
       is_visible="true"
       lpeversion="1"
       nodesatellites_param="F,0,0,1,0,0,0,1 @ F,0,0,1,0,0,0,1 @ F,0,0,1,0,0,0,1 @ F,0,0,1,0,0,0,1 @ F,0,0,1,0,0,0,1 @ F,0,0,1,0,0,0,1 @ F,0,0,1,0,0,0,1 @ F,0,0,1,0,0,0,1 @ F,0,0,1,0,0,0,1 @ F,0,0,1,0,0,0,1 @ F,0,0,1,0,0,0,1 @ F,0,0,1,0,0,0,1 @ F,0,0,1,0,0,0,1 @ F,0,0,1,0,0,0,1 @ F,0,0,1,0,0,0,1 @ F,0,0,1,0,0,0,1 @ F,0,0,1,0,0,0,1 | F,0,0,1,0,0,0,1 @ F,0,0,1,0,0,0,1 @ F,0,0,1,0,0,0,1 @ F,0,0,1,0,0,0,1 @ F,0,0,1,0,0,0,1 @ F,0,0,1,0,0,0,1 @ F,0,0,1,0,0,0,1 @ F,0,0,1,0,0,0,1 @ F,0,0,1,0,0,0,1 @ F,0,0,1,0,0,0,1 @ F,0,0,1,0,0,0,1 @ F,0,0,1,0,0,0,1 @ F,0,0,1,0,0,0,1 @ F,0,0,1,0,0,0,1 @ F,0,0,1,0,0,0,1 @ F,0,0,1,0,0,0,1 @ F,0,0,1,0,0,0,1 @ F,0,0,1,0,0,0,1 @ F,0,0,1,0,0,0,1 @ F,0,0,1,0,0,0,1 @ F,0,0,1,0,0,0,1 @ F,0,0,1,0,0,0,1 @ F,0,0,1,0,0,0,1 @ F,0,0,1,0,0,0,1 @ F,0,0,1,0,0,0,1"
       radius="0"
       unit="px"
       method="auto"
       mode="F"
       chamfer_steps="1"
       flexible="false"
       use_knot_distance="true"
       apply_no_radius="true"
       apply_with_radius="true"
       only_selected="false"
       hide_knots="false" /></defs><g
     inkscape:label="Layer 1"
     inkscape:groupmode="layer"
     id="layer1"><g
       id="g13"
       transform="translate(11.014382,-13.918847)"><path
         style="display:inline;fill:#fae4c0;stroke-width:0.796667"
         d="m 30.605026,141.64741 c -6.007419,-0.67891 -10.359481,-2.76613 -14.288222,-6.85257 -3.362753,-3.49773 -5.326365,-7.99504 -5.910217,-13.53632 -0.314594,-2.98579 -0.302158,-58.102349 0.01367,-60.622459 1.136873,-9.07126 6.286218,-15.68146 14.568911,-18.70205 4.294284,-1.56607 1.93329,-1.47602 38.698294,-1.47602 30.71893,0 33.02331,0.0246 34.87831,0.37223 9.585558,1.79634 16.267528,8.18956 18.196888,17.41047 0.80076,3.82699 0.88525,7.60803 0.79488,35.574793 -0.0768,23.762476 -0.12585,26.950186 -0.44202,28.706946 -1.0313,5.73032 -2.71259,9.16765 -6.17712,12.62884 -3.74299,3.73939 -8.3991,5.85138 -14.316798,6.49405 -2.42783,0.26367 -63.684813,0.26561 -66.016585,0.003 z"
         id="path31" /><path
         d="m 96.836822,36.210951 a 22.5,22.5 0 0 0 -21.57646,16.11943 c -0.17658,0.4206 -0.2891,0.87894 -0.35761,1.36478 a 22.5,22.5 0 0 0 -0.56637,5.01623 22.5,22.5 0 0 0 4.86689,13.97486 22.5,22.5 0 0 0 0,5.1e-4 l -0.62167,2.52181 c -1.05229,4.26975 -1.09901,4.68932 -0.60513,5.44308 0.6283,0.95891 1.6001,0.85057 4.77232,-0.53071 3.01078,-1.31099 3.41979,-1.37764 4.83329,-0.78704 0.32251,0.13475 0.96356,0.34794 1.68001,0.56379 a 22.5,22.5 0 0 0 7.57473,1.31362 22.5,22.5 0 0 0 22.499918,-22.49992 22.5,22.5 0 0 0 -22.499918,-22.50044 z"
         style="display:inline;fill:#fac25c;stroke-width:0.281589"
         id="path34" /><path
         style="display:inline;fill:#ce5541"
         d="m 23.892906,154.05403 c -6.278256,-0.58338 -10.786234,-2.33989 -15.3077579,-5.96457 -3.041565,-2.43826 -4.810871,-4.67325 -6.6791059,-8.43705 -1.81040908,-3.6473 -2.70652908,-7.05975 -3.1613561,-12.03854 -0.183995,-2.01412 -0.245219,-15.29639 -0.181108,-39.290629 0.08808,-32.96327 0.137983,-36.44976 0.55075402,-38.47539 1.42265405,-6.98151 4.21131198,-12.03618 8.83206198,-16.00882 4.7411299,-4.07614 9.7238199,-7.22805 16.5151819,-7.86422 1.952486,-0.18289 15.870825,5.9e-4 39.781906,0 44.175458,-10e-4 43.032858,0.76511 49.698058,3.77233 3.54947,1.60149 5.54389,2.99232 8.00267,5.58078 3.0091,3.1678 4.72079,6.05835 6.01193,10.15238 1.28221,4.06575 1.53017,6.13126 1.7446,14.53253 0.33827,13.25355 0.20177,65.748039 -0.17819,68.527079 -0.86224,6.30646 -2.04336,9.87846 -4.49321,13.58857 -4.68273,7.09164 -11.62576,11.01616 -21.12288,11.93961 -3.15052,0.30634 -76.704531,0.29341 -80.013554,-0.0141 z m 73.929966,-21.88116 c 2.580688,-1.19014 4.372328,-3.10897 5.516238,-5.90784 l 0.58416,-1.42929 0.0703,-22.09271 c 0.0387,-12.150989 0.0698,-22.232299 0.0692,-22.402909 -6.4e-4,-0.17062 0.44533,-0.45084 0.99103,-0.62271 3.1375,-0.98817 8.88074,-5.9107 10.88746,-9.33165 1.23826,-2.11092 2.58621,-6.21224 2.94582,-8.96305 0.69522,-5.31807 -1.0279,-11.63553 -4.38036,-16.05967 -4.77267,-6.29836 -13.26612,-9.68103 -21.083208,-8.39678 -5.17621,0.85039 -8.88568,2.75973 -12.62724,6.49952 -1.1013,1.10077 -2.35955,2.62082 -2.79612,3.37788 l -0.79375,1.37648 -24.870828,0.0755 -24.870833,0.0755 -1.675621,0.90847 c -1.845014,1.00031 -3.691665,2.91309 -4.614823,4.78007 l -0.588723,1.19062 v 35.0573 35.057289 l 0.697221,1.48696 c 1.197722,2.55438 3.073715,4.32504 5.756617,5.43338 l 1.483662,0.61293 33.998958,-0.0625 33.99896,-0.0625 z"
         id="path20"
         sodipodi:nodetypes="sssssssscssssssssscsccsssssssscccsscccsscccc" /><path
         style="display:inline;fill:#ae4632"
         d="m 43.075197,138.46178 -14.816666,-0.13229 -1.44101,-0.75838 c -1.85494,-0.97623 -4.233148,-3.37464 -5.019806,-5.06245 -0.424581,-0.91096 -0.659131,-2.00265 -0.753202,-3.50573 -0.07514,-1.20055 -0.07161,-2.18281 0.0078,-2.18281 0.07944,0 0.445004,0.51286 0.812353,1.1397 0.91887,1.56793 2.83412,3.26872 4.627701,4.10952 l 1.501549,0.7039 h 34.263546 34.26354 l 1.51759,-0.71124 c 1.7976,-0.84248 3.853008,-2.8105 4.815358,-4.61064 l 0.69107,-1.2927 -0.0808,2.64583 c -0.0988,3.23227 -0.67681,4.62393 -2.77632,6.68393 -1.644558,1.61363 -3.299298,2.52237 -5.372848,2.95064 -1.49902,0.30961 -19.24382,0.31733 -52.239847,0.0227 z"
         id="path17"
         sodipodi:nodetypes="ccsssssscccssccsssc" /><path
         d="m 97.406812,45.247101 c -1.10573,-0.0779 -2.33937,0.28496 -2.77296,0.94671 -0.69375,1.05879 -0.43448,1.07575 -0.12867,7.73079 0.36395,7.92042 0.54453,9.14404 1.26193,9.66918 0.75611,0.55348 2.20744,0.49838 2.77296,-0.27389 0.41625,-0.56844 0.52965,-1.61031 0.8046,-7.40833 0.45684,-9.63367 0.702008,-8.96601 -0.28628,-10.01799 -0.37061,-0.3945 -0.98815,-0.59975 -1.65158,-0.64647 z m -0.41703,22.88645 a 2.5,2.5 0 0 0 -2.50011,2.50011 2.5,2.5 0 0 0 2.50011,2.50011 2.5,2.5 0 0 0 2.5001,-2.50011 2.5,2.5 0 0 0 -2.5001,-2.50011 z"
         style="display:inline;fill:#4c3b29"
         id="path35" /><path
         style="font-weight:bold;font-size:54.552px;-inkscape-font-specification:'sans-serif Bold';display:inline;fill:#363635;stroke-width:0.226727"
         d="m 70.421632,67.782701 q -0.21014,3.63341 -1.74419,5.39637 -1.51305,1.74146 -4.24493,1.74146 -0.98769,0 -1.89131,-0.38699 -0.8826,-0.40849 -1.6181,-0.85998 -0.65146,-0.40849 -1.45001,-0.81698 -0.777527,-0.42999 -1.302894,-0.42999 -1.029701,0 -1.386952,0.68798 -0.336225,0.68798 -0.399269,1.93495 h -4.602171 q 0.126086,-3.24641 1.744199,-5.18137 1.639133,-1.93495 4.223903,-1.93495 1.008694,0 1.912314,0.38699 0.90362,0.36549 1.66014,0.81698 0.77754,0.42999 1.45,0.81698 0.67246,0.36548 1.23985,0.36548 1.00871,0 1.38697,-0.68797 0.37825,-0.68799 0.42028,-1.84896 z"
         id="path36" /><path
         style="font-weight:bold;font-size:54.552px;-inkscape-font-specification:'sans-serif Bold';display:inline;fill:#363635;stroke-width:0.284126"
         d="M 75.460356,111.85487 H 66.481071 V 95.922394 c 0,-1.29672 -0.05792,-2.58391 -0.173635,-3.86156 -0.11576,-1.296713 -0.314194,-2.250182 -0.595311,-2.860402 -0.330732,-0.705569 -0.818562,-1.220442 -1.463479,-1.544618 -0.628378,-0.324188 -1.513084,-0.486276 -2.654099,-0.486276 -0.810283,0 -1.637105,0.152552 -2.480465,0.457668 -0.826821,0.305116 -2.703706,1.458806 -2.703706,1.458806 V 111.85487 H 47.480698 V 79.732482 h 8.929678 v 3.546904 c 1.587499,-1.430199 3.108852,-2.526695 4.564061,-3.289468 1.471739,-0.762773 3.100574,-1.144165 4.886516,-1.144165 3.00963,0 5.357805,1.010674 7.044525,3.032031 1.703249,2.021358 2.554878,5.043853 2.554878,9.067497 z"
         id="text35"
         sodipodi:nodetypes="ccscccsccccccccscsc" /><path
         style="font-size:50.8px;font-family:Monospace;-inkscape-font-specification:Monospace;display:none;fill:#4c3b29;stroke-width:0.258828"
         d="m 137.57359,155.8517 h 0.86841 q 0.95749,0 1.6255,0.81972 0.69029,0.79326 0.69029,1.93028 0,1.16346 -0.69029,1.95672 -0.69027,0.79328 -1.6255,0.79328 h -0.86841 q -0.9575,0 -1.64778,-0.79328 -0.66802,-0.81971 -0.66802,-1.93029 0,-1.18989 0.69029,-1.98317 0.69028,-0.79326 1.62551,-0.79326 z"
         id="path37" /><path
         style="font-size:50.8px;font-family:Monospace;-inkscape-font-specification:Monospace;display:none;fill:#4c3b29;stroke-width:0.309614"
         d="m 141.06404,135.7101 -1.44929,14.97774 q -0.0762,0.70691 -0.53394,0.99409 -0.41953,0.28719 -1.06789,0.28719 -0.68649,0 -1.14417,-0.28719 -0.41952,-0.28718 -0.4958,-0.99409 l -1.41113,-14.97774 q -0.0762,-0.53018 -0.0762,-0.77318 0,-0.7511 0.8772,-1.25919 0.91533,-0.5081 2.25018,-0.5081 1.33486,0 2.21206,0.5081 0.87718,0.50809 0.87718,1.28128 0,0.22091 -0.0382,0.75109 z"
         id="text37" /></g></g></svg>
